<svg width="24" height="24" viewBox="0 0 24 24" fill="none" xmlns="http://www.w3.org/2000/svg">
<g clip-path="url(#clip0_664_1111)">
<path d="M6.4704 1.34723C4.805 2.21266 3.36555 3.45629 2.26746 4.97838C1.16938 6.50047 0.443216 8.25868 0.1472 10.112H0.8432C5.3312 10.008 8.8496 9.61923 11.7232 8.73923C10.4752 6.52643 8.952 4.35523 7.1248 2.14723L7.1232 2.14563L6.4704 1.34723V1.34723ZM0.0032 11.712L0 12C0 15.2272 1.2736 18.1568 3.3456 20.3136L3.6032 19.7952C3.61751 19.7666 3.63354 19.7388 3.6512 19.712C6.304 15.6768 9.3056 13.2768 12.6624 12.2C12.8896 12.1264 13.12 12.0592 13.3504 11.9984C13.0816 11.3823 12.7951 10.774 12.4912 10.1744C9.3472 11.1872 5.568 11.6032 0.8704 11.7104H0.0048L0.0032 11.712Z" fill="#7E8CAC"/>
<path d="M4.57617 21.4288C6.69026 23.0982 9.30643 24.0043 12.0002 24C13.429 24 14.8002 23.7504 16.069 23.2928V22.1408C15.6786 19.0448 14.9922 16.2048 13.9602 13.4944C13.6882 13.5616 13.4178 13.6384 13.1506 13.7232C10.2354 14.6592 7.51057 16.768 5.01457 20.552L4.57777 21.4288H4.57617ZM17.669 22.5792C19.2156 21.7493 20.5617 20.5907 21.6127 19.1848C22.6636 17.7789 23.3939 16.1599 23.7522 14.4416L22.8482 14.0336C20.2466 13.2688 17.8226 12.9552 15.5634 13.2096C16.5842 15.9616 17.2706 18.8512 17.6626 21.9904C17.6674 22.0224 17.669 22.0544 17.669 22.0896V22.5792V22.5792ZM23.9746 12.7872C24.1858 9.64431 23.1479 6.54507 21.0866 4.16321L20.6114 4.68961C18.7394 6.96641 16.6018 8.54561 14.0034 9.62081C14.3426 10.2992 14.6594 10.9824 14.9522 11.6752C17.6274 11.2912 20.4402 11.6528 23.3538 12.5152C23.3893 12.5256 23.424 12.5384 23.4578 12.5536L23.9746 12.7872V12.7872ZM19.9618 3.02081C17.7686 1.07083 14.9348 -0.00436257 12.0002 1.33044e-05C10.5954 1.33044e-05 9.24817 0.240013 7.99537 0.684813L8.36017 1.12961C10.3122 3.48641 11.9314 5.81601 13.253 8.19841C15.7218 7.20161 17.6786 5.74401 19.3874 3.65921C19.3951 3.64942 19.4031 3.63982 19.4114 3.63041L19.9618 3.02241V3.02081Z" fill="#7E8CAC"/>
</g>
<defs>
<clipPath id="clip0_664_1111">
<rect width="24" height="24" fill="white"/>
</clipPath>
</defs>
</svg>
