<svg width="40" height="40" viewBox="0 0 40 40" fill="none" xmlns="http://www.w3.org/2000/svg">
<path d="M23.333 9.99998V6.66665H16.6663V9.99998H23.333ZM6.66634 15V30C6.66634 30.9166 7.41634 31.6666 8.33301 31.6666H31.6663C32.583 31.6666 33.333 30.9166 33.333 30V15C33.333 14.0833 32.583 13.3333 31.6663 13.3333H8.33301C7.41634 13.3333 6.66634 14.0833 6.66634 15ZM33.333 9.99998C35.183 9.99998 36.6663 11.4833 36.6663 13.3333V31.6666C36.6663 33.5166 35.183 35 33.333 35H6.66634C4.81634 35 3.33301 33.5166 3.33301 31.6666L3.34967 13.3333C3.34967 11.4833 4.81634 9.99998 6.66634 9.99998H13.333V6.66665C13.333 4.81665 14.8163 3.33331 16.6663 3.33331H23.333C25.183 3.33331 26.6663 4.81665 26.6663 6.66665V9.99998H33.333Z" fill="#7E8CAC"/>
</svg>
