<svg width="50" height="50" viewBox="0 0 50 50" fill="none" xmlns="http://www.w3.org/2000/svg">
<path d="M41.667 6.25H8.33366C6.03574 6.25 4.16699 8.11875 4.16699 10.4167V39.5833C4.16699 41.8812 6.03574 43.75 8.33366 43.75H41.667C43.9649 43.75 45.8337 41.8812 45.8337 39.5833V10.4167C45.8337 8.11875 43.9649 6.25 41.667 6.25ZM8.33366 39.5833V14.5833H41.667L41.6712 39.5833H8.33366Z" fill="#7E8CAC"/>
<path d="M19.3606 19.3605L11.6377 27.0834L19.3606 34.8063L22.3064 31.8605L17.5294 27.0834L22.3064 22.3063L19.3606 19.3605ZM30.6398 19.3605L27.6939 22.3063L32.471 27.0834L27.6939 31.8605L30.6398 34.8063L38.3627 27.0834L30.6398 19.3605Z" fill="#7E8CAC"/>
</svg>
