<svg width="50" height="50" viewBox="0 0 50 50" fill="none" xmlns="http://www.w3.org/2000/svg">
<path d="M34.7754 33.1217C34.4434 38.3578 32.7441 42.4799 29.6777 45.488C26.6309 48.496 22.6074 50 17.6074 50C12.1387 50 7.83203 47.9055 4.6875 43.7166C1.5625 39.5053 0 33.7344 0 26.4037V23.4291C0 18.75 0.722656 14.6279 2.16797 11.0628C3.61328 7.49777 5.67383 4.76827 8.34961 2.87433C11.0449 0.958111 14.1699 0 17.7246 0C22.6465 0 29.0625 0 32.8125 4.3672C43.2817 16.5595 48.5938 44.5633 49.0625 50H42.5C41.25 47.1479 40 21.4795 28.75 10.0713C26.1075 7.39165 20.4199 8.22192 17.7246 8.22192C14.7949 8.22192 12.5977 9.42513 11.1328 11.8316C9.6875 14.2157 8.94531 17.9256 8.90625 22.9612V26.6377C8.90625 31.8962 9.59961 35.7397 10.9863 38.1684C12.3926 40.5971 14.5996 41.8115 17.6074 41.8115C20.3223 41.8115 22.3438 41.1096 23.6719 39.7059C25.0195 38.2799 25.791 36.0851 25.9863 33.1217H34.7754Z" fill="#FF023F"/>
<path d="M42.5 5.79323C42.5 3.43051 44.1789 1.51515 46.25 1.51515C48.3211 1.51515 50 3.43051 50 5.79323V50H42.5V5.79323Z" fill="#FF023F"/>
<path d="M15 25.7576C15 23.3949 16.6789 21.4795 18.75 21.4795C20.8211 21.4795 22.5 23.3949 22.5 25.7576V47.1479H15V25.7576Z" fill="#FF023F"/>
</svg>
