<svg width="50" height="50" viewBox="0 0 50 50" fill="none" xmlns="http://www.w3.org/2000/svg">
<path d="M43.7497 33.3333V8.33333H6.24967V33.3333H43.7497ZM43.7497 4.16666C44.8547 4.16666 45.9145 4.60565 46.6959 5.38705C47.4773 6.16845 47.9163 7.22826 47.9163 8.33333V33.3333C47.9163 34.4384 47.4773 35.4982 46.6959 36.2796C45.9145 37.061 44.8547 37.5 43.7497 37.5H29.1663V41.6667H33.333V45.8333H16.6663V41.6667H20.833V37.5H6.24967C5.14461 37.5 4.0848 37.061 3.3034 36.2796C2.52199 35.4982 2.08301 34.4384 2.08301 33.3333V8.33333C2.08301 6.02083 3.93717 4.16666 6.24967 4.16666H43.7497ZM10.4163 12.5H29.1663V22.9167H10.4163V12.5ZM31.2497 12.5H39.583V16.6667H31.2497V12.5ZM39.583 18.75V29.1667H31.2497V18.75H39.583ZM10.4163 25H18.7497V29.1667H10.4163V25ZM20.833 25H29.1663V29.1667H20.833V25Z" fill="#7E8CAC"/>
</svg>
